<?xml version="1.0" encoding="UTF-8" standalone="no"?>
<svg
   xmlns:dc="http://purl.org/dc/elements/1.1/"
   xmlns:cc="http://creativecommons.org/ns#"
   xmlns:rdf="http://www.w3.org/1999/02/22-rdf-syntax-ns#"
   xmlns:svg="http://www.w3.org/2000/svg"
   xmlns="http://www.w3.org/2000/svg"
   xmlns:sodipodi="http://sodipodi.sourceforge.net/DTD/sodipodi-0.dtd"
   xmlns:inkscape="http://www.inkscape.org/namespaces/inkscape"
   viewBox="0.3 0.1 137.7 149.3"
   version="1.1"
   id="svg12"
   sodipodi:docname="air-e.svg"
   inkscape:version="0.92.3 (2405546, 2018-03-11)">
  <metadata
     id="metadata18">
    <rdf:RDF>
      <cc:Work
         rdf:about="">
        <dc:format>image/svg+xml</dc:format>
        <dc:type
           rdf:resource="http://purl.org/dc/dcmitype/StillImage" />
        <dc:title></dc:title>
      </cc:Work>
    </rdf:RDF>
  </metadata>
  <defs
     id="defs16" />
  <sodipodi:namedview
     pagecolor="#ffffff"
     bordercolor="#666666"
     borderopacity="1"
     objecttolerance="10"
     gridtolerance="10"
     guidetolerance="10"
     inkscape:pageopacity="0"
     inkscape:pageshadow="2"
     inkscape:window-width="1366"
     inkscape:window-height="713"
     id="namedview14"
     showgrid="false"
     inkscape:zoom="1.5807099"
     inkscape:cx="68.849998"
     inkscape:cy="74.650002"
     inkscape:window-x="0"
     inkscape:window-y="27"
     inkscape:window-maximized="1"
     inkscape:current-layer="svg12" />
  <g
     id="g10"
     style="fill:#47848f">
    <path
       d="M 48.8,32.2 C 29.3,28.6 13.9,32.4 7.7,43 c -4.6,7.9 -3.3,18.5 3.2,29.7 0.5,1 1.8,1.3 2.7,0.7 1,-0.5 1.3,-1.8 0.7,-2.7 C 8.5,60.6 7.4,51.5 11.1,45 16.2,36.2 30,32.8 48,36.1 c 1.1,0.2 2.1,-0.5 2.3,-1.6 0.2,-1.1 -0.4,-2.1 -1.5,-2.3 z M 21.1,86.4 c 7.9,8.7 18.1,16.8 29.8,23.5 28.3,16.3 58.4,20.7 73.3,10.6 0.9,-0.6 1.1,-1.9 0.5,-2.8 -0.6,-0.9 -1.9,-1.1 -2.8,-0.5 -13.3,9.1 -41.9,4.9 -69,-10.7 C 41.6,100 31.6,92.1 24,83.7 c -0.7,-0.8 -2,-0.9 -2.8,-0.1 -0.8,0.7 -0.9,2 -0.1,2.8 z"
       id="path2"
       inkscape:connector-curvature="0" />
    <path
       d="M 119.4,84 C 132.2,68.9 136.6,53.7 130.5,43.1 126,35.3 116.4,31.2 103.8,31 c -1.1,0 -2,0.9 -2,2 0,1.1 0.9,2 2,2 11.4,0.1 19.6,3.7 23.3,10.1 5.1,8.8 1.1,22.4 -10.7,36.3 -0.7,0.8 -0.6,2.1 0.2,2.8 0.8,0.7 2.1,0.6 2.8,-0.2 z M 86.6,32.8 C 75.1,35.3 62.8,40.1 51,46.9 21.7,63.8 2.7,88.7 5.3,106.7 c 0.2,1.1 1.2,1.8 2.3,1.7 1.1,-0.2 1.8,-1.2 1.7,-2.3 C 6.9,90.1 25,66.6 53,50.4 64.5,43.8 76.4,39.1 87.5,36.7 c 1.1,-0.2 1.8,-1.3 1.5,-2.4 -0.3,-1 -1.3,-1.7 -2.4,-1.5 z"
       id="path4"
       inkscape:connector-curvature="0" />
    <path
       d="m 39.3,119.2 c 6.7,18.6 17.6,30.1 29.9,30.1 9,0 17.2,-6.1 23.7,-16.9 0.6,-0.9 0.3,-2.2 -0.7,-2.7 -0.9,-0.6 -2.2,-0.3 -2.7,0.7 -5.8,9.7 -12.9,14.9 -20.3,14.9 -10.2,0 -19.9,-10.2 -26.1,-27.5 -0.4,-1 -1.5,-1.6 -2.6,-1.2 -1.1,0.4 -1.6,1.6 -1.2,2.6 z m 61,-3.6 c 3.5,-11 5.3,-23.8 5.3,-37.1 0,-33.1 -11.6,-61.7 -28.1,-69 -1,-0.4 -2.2,0 -2.6,1 -0.4,1 0,2.2 1,2.6 14.7,6.5 25.7,33.6 25.7,65.4 0,12.9 -1.8,25.2 -5.1,35.9 -0.3,1.1 0.3,2.2 1.3,2.5 1,0.3 2.1,-0.3 2.5,-1.3 z m 37.6,-2 c 0,-5.3 -4.3,-9.6 -9.6,-9.6 -5.3,0 -9.6,4.3 -9.6,9.6 0,5.3 4.3,9.6 9.6,9.6 5.4,0 9.6,-4.3 9.6,-9.6 z m -4,0 c 0,3.1 -2.5,5.6 -5.6,5.6 -3.1,0 -5.6,-2.5 -5.6,-5.6 0,-3.1 2.5,-5.6 5.6,-5.6 3.1,0 5.6,2.5 5.6,5.6 z M 9.8,123.2 c 5.3,0 9.6,-4.3 9.6,-9.6 0,-5.3 -4.3,-9.6 -9.6,-9.6 -5.3,0 -9.6,4.3 -9.6,9.6 0,5.3 4.3,9.6 9.6,9.6 z m 0,-4 c -3.1,0 -5.6,-2.5 -5.6,-5.6 0,-3.1 2.5,-5.6 5.6,-5.6 3.1,0 5.6,2.5 5.6,5.6 0,3.1 -2.5,5.6 -5.6,5.6 z"
       id="path6"
       inkscape:connector-curvature="0" />
    <path
       d="m 69.2,19.2 c 5.3,0 9.6,-4.3 9.6,-9.6 0,-5.3 -4.3,-9.6 -9.6,-9.6 -5.3,0 -9.6,4.3 -9.6,9.6 0,5.3 4.3,9.6 9.6,9.6 z m 0,-4 c -3.1,0 -5.6,-2.5 -5.6,-5.6 0,-3.1 2.5,-5.6 5.6,-5.6 3.1,0 5.6,2.5 5.6,5.6 0,3.1 -2.6,5.6 -5.6,5.6 z m 1.4,70.1 c -3.7,0.8 -7.4,-1.6 -8.2,-5.3 -0.8,-3.7 1.6,-7.4 5.3,-8.2 3.7,-0.8 7.4,1.6 8.2,5.3 0.8,3.7 -1.5,7.4 -5.3,8.2 z"
       id="path8"
       inkscape:connector-curvature="0" />
  </g>
  <path
     d="m 35.176072,90.680533 c 0.493475,0.81182 1.056451,1.19385 1.619428,1.19385 0.125104,0 0.243261,-0.0161 0.361415,-0.0637 0.736736,-0.22285 1.431768,-1.11427 1.897441,-2.59465 1.800136,-5.74659 4.587216,-10.26719 7.833019,-12.75056 1.862689,-1.41655 3.80878,-2.13287 5.720121,-2.13287 6.92948,0 12.872008,9.48719 19.127236,14.94694 3.350057,2.92894 6.846071,5.0938 10.647902,5.0938 1.598574,0 3.252751,-0.38188 4.969482,-1.25737 4.038214,-2.03752 7.499402,-6.43092 10.001525,-12.59139 0.597725,-1.48038 1.139781,-3.04036 1.619424,-4.71175 0.847941,-2.92893 0.493474,-6.87662 -0.785388,-8.81864 -0.472617,-0.71631 -1.000847,-1.05059 -1.529072,-1.05059 -0.903537,0 -1.786235,1.00284 -2.321406,2.84935 -0.215461,0.74798 -0.451772,1.46431 -0.708935,2.16486 -1.73758,4.74359 -4.343959,8.15007 -7.471603,9.72595 -2.884387,1.44872 -6.06764,1.01877 -8.910253,-0.6684 -2.988637,-1.78282 -5.880046,-4.7595 -8.952089,-7.92736 -3.266656,-3.35873 -6.637564,-6.8448 -10.293366,-8.97765 -1.737581,-1.01877 -3.55857,-1.51223 -5.400409,-1.51223 -2.509067,0 -5.059837,0.93901 -7.485502,2.78568 -2.11985,1.62363 -4.086794,3.88384 -5.852176,6.73335 -1.862686,3.00852 -3.454312,6.59009 -4.733174,10.66513 -0.0834,0.2706 -0.152906,0.54121 -0.215461,0.82773 -0.604677,2.75384 -0.271063,6.20807 0.861841,8.07049 z"
     id="path4-6"
     inkscape:connector-curvature="0"
     style="fill:#47848f;fill-opacity:0.92941176;stroke-width:0.10518367" />
</svg>
