<?xml version="1.0" encoding="UTF-8" standalone="no"?>
<!-- Generator: Adobe Illustrator 19.0.0, SVG Export Plug-In . SVG Version: 6.00 Build 0)  -->

<svg
   xmlns:dc="http://purl.org/dc/elements/1.1/"
   xmlns:cc="http://creativecommons.org/ns#"
   xmlns:rdf="http://www.w3.org/1999/02/22-rdf-syntax-ns#"
   xmlns:svg="http://www.w3.org/2000/svg"
   xmlns="http://www.w3.org/2000/svg"
   xmlns:sodipodi="http://sodipodi.sourceforge.net/DTD/sodipodi-0.dtd"
   xmlns:inkscape="http://www.inkscape.org/namespaces/inkscape"
   version="1.1"
   id="Capa_1"
   x="0px"
   y="0px"
   viewBox="0 0 489.3 489.3"
   style="enable-background:new 0 0 489.3 489.3;"
   xml:space="preserve"
   sodipodi:docname="wifi.-bluesvg.svg"
   inkscape:version="0.92.3 (2405546, 2018-03-11)"><metadata
   id="metadata49"><rdf:RDF><cc:Work
       rdf:about=""><dc:format>image/svg+xml</dc:format><dc:type
         rdf:resource="http://purl.org/dc/dcmitype/StillImage" /><dc:title></dc:title></cc:Work></rdf:RDF></metadata><defs
   id="defs47" /><sodipodi:namedview
   pagecolor="#ffffff"
   bordercolor="#666666"
   borderopacity="1"
   objecttolerance="10"
   gridtolerance="10"
   guidetolerance="10"
   inkscape:pageopacity="0"
   inkscape:pageshadow="2"
   inkscape:window-width="1366"
   inkscape:window-height="713"
   id="namedview45"
   showgrid="false"
   inkscape:zoom="0.4823217"
   inkscape:cx="244.64999"
   inkscape:cy="244.64999"
   inkscape:window-x="0"
   inkscape:window-y="27"
   inkscape:window-maximized="1"
   inkscape:current-layer="Capa_1" />
<g
   id="g12"
   style="fill:#47848f;fill-opacity:0.92941177">
	<g
   id="g10"
   style="fill:#47848f;fill-opacity:0.92941177">
		<path
   d="m 79.55,229.675 c -10.2,10.2 -10.2,26.8 0,37.1 10.2,10.2 26.8,10.2 37.1,0 70.6,-70.6 185.5,-70.6 256.1,0 5.1,5.1 11.8,7.7 18.5,7.7 6.7,0 13.4,-2.6 18.5,-7.7 10.2,-10.2 10.2,-26.8 0,-37.1 -91,-91.1 -239.2,-91.1 -330.2,0 z"
   id="path2"
   inkscape:connector-curvature="0"
   style="fill:#47848f;fill-opacity:0.92941177" />
		<path
   d="m 150.35,300.475 c -10.2,10.2 -10.2,26.8 0,37.1 10.2,10.2 26.8,10.2 37.1,0 31.5,-31.6 82.9,-31.6 114.4,0 5.1,5.1 11.8,7.7 18.5,7.7 6.7,0 13.4,-2.6 18.5,-7.7 10.2,-10.2 10.2,-26.8 0,-37 -51.9,-52.1 -136.5,-52.1 -188.5,-0.1 z"
   id="path4"
   inkscape:connector-curvature="0"
   style="fill:#47848f;fill-opacity:0.92941177" />
		<circle
   cx="244.64999"
   cy="394.67499"
   r="34.900002"
   id="circle6"
   style="fill:#47848f;fill-opacity:0.92941177" />
		<path
   d="m 481.65,157.675 c -130.7,-130.6 -343.3,-130.6 -474,0 -10.2,10.2 -10.2,26.8 0,37.1 10.2,10.2 26.8,10.2 37.1,0 110.2,-110.3 289.6,-110.3 399.9,0 5.1,5.1 11.8,7.7 18.5,7.7 6.7,0 13.4,-2.6 18.5,-7.7 10.2,-10.2 10.2,-26.8 0,-37.1 z"
   id="path8"
   inkscape:connector-curvature="0"
   style="fill:#47848f;fill-opacity:0.92941177" />
	</g>
</g>
<g
   id="g14">
</g>
<g
   id="g16">
</g>
<g
   id="g18">
</g>
<g
   id="g20">
</g>
<g
   id="g22">
</g>
<g
   id="g24">
</g>
<g
   id="g26">
</g>
<g
   id="g28">
</g>
<g
   id="g30">
</g>
<g
   id="g32">
</g>
<g
   id="g34">
</g>
<g
   id="g36">
</g>
<g
   id="g38">
</g>
<g
   id="g40">
</g>
<g
   id="g42">
</g>
</svg>